<svg version="1" xmlns="http://www.w3.org/2000/svg" width="666.667" height="666.667" viewBox="0 0 500.000000 500.000000"><path d="M66.9 111.4c-.2.2-2.7.6-5.6.9-17.8 1.8-32 19.7-30.6 38.4.6 9.1-1.5 5.1 40.3 77.3 10 17.3 19.4 33.5 20.8 36 1.4 2.5 9.8 17.1 18.7 32.5 22.9 39.5 38.3 66.2 41.3 71.5 10 17.9 16.5 23.7 29.8 26.5 22 4.6 43.4-12.6 43.4-35 0-8.7-1.4-12.6-9.4-26.5-2.7-4.7-5.7-10-6.7-11.7-1-1.8-6.9-11.9-13-22.5s-12.3-21.3-13.7-23.7c-4.3-7.7-8.2-14.5-9.2-16.1-2.6-4.3-63.2-109.3-71.6-124-2.3-4.1-5.8-9.3-7.8-11.6-3.9-4.6-13.2-9.8-19.1-10.8-2.2-.4-4.7-.9-5.6-1.2-.8-.2-1.7-.2-2 0zM182 112.4c-18.3 3.8-30.5 19.4-29.5 37.6.5 8.1 2.7 13.1 16.7 37 6.9 11.8 13.6 23.5 15 26 3.8 6.9 9.9 17.2 11.6 20 .9 1.4 1.5 2.8 1.4 3.2-.1.5.3.8.8.8.6 0 1 .4 1 .9 0 .8 12.8 23.3 21.6 37.9 2.4 4 4.4 7.4 4.4 7.7 0 .2 1.4 2.8 3.1 5.7 3.6 6 3.5 5.8 15.9 27.3 13.2 22.9 13.1 22.6 15.5 27 1.3 2.2 4.7 8 7.5 13 2.9 4.9 7.3 12.4 9.6 16.5 2.4 4.1 5.4 8.7 6.7 10.1 4.2 4.6 10.9 8.9 16.6 10.6 19.5 5.6 38.7-4.3 44.9-23.2 3.5-10.9 2.3-21.1-3.7-31.3-1.5-2.6-3.9-6.8-5.3-9.3-1.4-2.4-4.9-8.5-7.8-13.4-2.9-5-6.4-11-7.8-13.5-1.4-2.5-9.9-17.3-19-33s-17.7-30.5-19.1-33c-4.6-8.2-22.2-38.5-23.1-40-3.4-5.4-37-64.1-37-64.6 0-1.1-5.4-8-8.9-11.2-8.2-7.7-20.1-11-31.1-8.8zM301.8 112.7c-19 4.9-30.8 24.1-26.7 43.5.6 2.6 4.2 10.2 8.1 17 3.9 6.8 8 13.9 9.1 15.8 1 1.9 5.2 9.1 9.2 16 4 6.9 12.4 21.5 18.7 32.5 9.5 16.4 47.1 81.6 53.8 93 4.5 7.8 17.5 30.4 19.3 33.5 12.6 22.5 17.9 27.5 32.2 30.5 22.9 4.8 44.1-13.3 43-36.7-.4-7.6-.8-9.6-3.1-14-2-4-39.3-68.9-40.4-70.3-.4-.6-1.9-3-3.2-5.5-1.4-2.5-3.4-6.1-4.5-8-1.1-1.9-5.5-9.6-9.8-17-10.2-17.7-9.2-16-24.5-42.5-7.3-12.7-18-31.1-23.7-41-5.7-9.9-10.7-18.7-11.3-19.5-.5-.8-2.5-4.2-4.4-7.6-9.5-16.4-25.3-23.9-41.8-19.7z"/></svg>